<svg width="80" height="80" viewBox="0 0 80 80" fill="none" xmlns="http://www.w3.org/2000/svg">
  <rect x="15" y="10" width="50" height="60" rx="4" fill="white" stroke="#DDDDDD" stroke-width="1"/>
  <rect x="20" y="20" width="20" height="3" rx="1" fill="#43b77a"/>
  <rect x="20" y="26" width="40" height="2" rx="1" fill="#EEEEEE"/>
  <rect x="20" y="30" width="40" height="2" rx="1" fill="#EEEEEE"/>
  <rect x="20" y="34" width="40" height="2" rx="1" fill="#EEEEEE"/>
  <rect x="20" y="38" width="40" height="2" rx="1" fill="#EEEEEE"/>
  <rect x="20" y="45" width="20" height="3" rx="1" fill="#43b77a"/>
  <rect x="20" y="51" width="40" height="2" rx="1" fill="#EEEEEE"/>
  <rect x="20" y="55" width="40" height="2" rx="1" fill="#EEEEEE"/>
  <rect x="20" y="59" width="40" height="2" rx="1" fill="#EEEEEE"/>
  <rect x="20" y="63" width="30" height="2" rx="1" fill="#EEEEEE"/>
  <path d="M63 25L67 25C67.5523 25 68 25.4477 68 26L68 64C68 64.5523 67.5523 65 67 65L47 65C46.4477 65 46 64.5523 46 64L46 60" stroke="#CCCCCC" stroke-width="1" stroke-linecap="round"/>
  <path d="M67 15L71 15C71.5523 15 72 15.4477 72 16L72 54C72 54.5523 71.5523 55 71 55L51 55C50.4477 55 50 54.5523 50 54L50 50" stroke="#CCCCCC" stroke-width="1" stroke-linecap="round"/>
</svg> 