<svg width="80" height="80" viewBox="0 0 80 80" fill="none" xmlns="http://www.w3.org/2000/svg">
  <rect x="15" y="10" width="50" height="60" rx="4" fill="white" stroke="#DDDDDD" stroke-width="1"/>
  <rect x="20" y="20" width="24" height="3" rx="1" fill="#43b77a"/>
  <rect x="20" y="26" width="40" height="2" rx="1" fill="#EEEEEE"/>
  <rect x="20" y="30" width="40" height="2" rx="1" fill="#EEEEEE"/>
  <rect x="20" y="34" width="40" height="2" rx="1" fill="#EEEEEE"/>
  <rect x="20" y="38" width="40" height="2" rx="1" fill="#EEEEEE"/>
  <rect x="20" y="42" width="40" height="2" rx="1" fill="#EEEEEE"/>
  <rect x="20" y="46" width="40" height="2" rx="1" fill="#EEEEEE"/>
  <rect x="20" y="50" width="40" height="2" rx="1" fill="#EEEEEE"/>
  <rect x="20" y="54" width="40" height="2" rx="1" fill="#EEEEEE"/>
  <rect x="20" y="58" width="40" height="2" rx="1" fill="#EEEEEE"/>
  <rect x="20" y="62" width="30" height="2" rx="1" fill="#EEEEEE"/>
</svg> 